<?xml version="1.0" encoding="UTF-8"?>
<svg width="246px" height="67px" viewBox="0 0 246 67" version="1.1" xmlns="http://www.w3.org/2000/svg" xmlns:xlink="http://www.w3.org/1999/xlink">
    <!-- Generator: sketchtool 58 (101010) - https://sketch.com -->
    <title>40E61703-1C6A-4B26-AF54-099DAA5F9CFC@1.00x</title>
    <desc>Created with sketchtool.</desc>
    <g id="Swash-Brand" stroke="none" stroke-width="1" fill="none" fill-rule="evenodd">
        <g id="Swash-Brand-Marks" transform="translate(-411.000000, -1040.000000)" fill="#404040">
            <g id="Horizontal-outline-lockup" transform="translate(411.000000, 1040.000000)">
                <g id="Group-14-Copy" transform="translate(95.000000, 13.000000)">
                    <path d="M14.9218605,39.9373953 C10.2544186,39.9373953 6.61953488,38.6885581 4.0144186,36.3013953 C1.57395349,34.0227907 2.62900812e-13,30.7116279 2.62900812e-13,27.0767442 L5.04697674,27.0767442 C5.04697674,29.3567442 6.13116279,31.6339535 7.70511628,33.1534884 C9.44093023,34.8362791 12.2093023,35.487907 14.9218605,35.487907 C17.852093,35.487907 20.2395349,34.8906977 21.9767442,33.2623256 C23.1697674,32.1767442 23.9302326,30.8204651 23.9302326,28.7595349 C23.9302326,25.7748837 22.14,23.2786047 17.5813953,22.5725581 C15.4646512,22.2474419 13.7288372,21.9767442 11.6665116,21.6502326 C5.91488372,20.7823256 1.51953488,17.58 1.51953488,11.4488372 C1.51953488,8.57302326 2.71255814,5.80604651 4.77488372,3.85116279 C7.43302326,1.35627907 10.6897674,0.0544186047 14.704186,0.0544186047 C18.4493023,0.0544186047 22.0297674,1.19302326 24.5804651,3.63488372 C26.9134884,5.86046512 28.107907,8.68186047 28.2167442,11.9372093 L23.1697674,11.9372093 C23.0609302,10.0381395 22.4106977,8.46418605 21.3251163,7.21534884 C19.86,5.53395349 17.635814,4.5027907 14.6497674,4.5027907 C11.8827907,4.5027907 9.65860465,5.31767442 7.97581395,7.21534884 C6.99906977,8.35674419 6.51069767,9.60418605 6.51069767,11.3413953 C6.51069767,14.8144186 9.27906977,16.3869767 12.1548837,16.7665116 C14.3246512,17.0386047 16.2781395,17.4181395 18.3948837,17.7432558 C24.7981395,18.6669767 28.975814,22.5725581 28.975814,28.6506977 C28.975814,31.8530233 27.6739535,34.2934884 25.7748837,36.1395349 C23.1153488,38.7429767 19.0465116,39.9373953 14.9218605,39.9373953 Z" id="Fill-97"></path>
                    <polygon id="Fill-98" points="58.6582326 39.2310698 53.1228837 39.2310698 47.9140465 23.7669767 42.6507907 39.2310698 37.1698605 39.2310698 33.4261395 11.8283721 37.8214884 11.8283721 40.6428837 33.6962791 45.7442791 18.9376744 50.083814 18.9376744 55.2396279 33.6432558 58.1154419 11.8283721 62.4563721 11.8283721"></polygon>
                    <path d="M84.9212093,27.6181395 C84.9212093,29.8981395 84.1077209,32.1237209 82.4793488,33.8051163 C81.0142326,35.3232558 78.8444651,36.0293023 76.7277209,36.0293023 C72.8207442,36.0293023 71.2467907,33.9139535 71.2467907,31.472093 C71.2467907,27.9976744 74.3946977,26.5883721 77.3249302,26.4251163 L84.9212093,25.9911628 L84.9212093,27.6181395 Z M91.108186,35.704186 C90.1844651,35.704186 89.479814,35.3232558 89.479814,33.8595349 L89.479814,20.5646512 C89.479814,18.9906977 89.2077209,17.7418605 88.6649302,16.4944186 C87.3630698,13.5097674 84.2165581,11.0693023 78.8988837,11.0693023 C75.5333023,11.0693023 72.3323721,12.207907 70.4333023,14.1069767 C68.968186,15.572093 67.9370233,17.4167442 67.8826047,19.7497674 L72.4412093,19.7497674 C72.5500465,18.3404651 73.0370233,17.4167442 73.9063256,16.5488372 C74.8286512,15.6265116 76.4026047,14.8660465 78.8988837,14.8660465 C81.1230698,14.8660465 82.588186,15.572093 83.5105116,16.44 C84.7593488,17.58 84.9212093,19.0451163 84.9212093,20.4013953 L84.9212093,22.4106977 L76.3467907,22.8976744 C69.3477209,23.2772093 66.5263256,27.7813953 66.5263256,31.8502326 C66.5263256,35.7586047 69.4565581,39.9368372 76.0230698,39.9368372 C79.8742326,39.9368372 83.456093,38.2004651 85.0844651,35.4334884 L85.191907,35.4334884 C85.191907,37.7651163 86.8202791,39.6117209 89.2621395,39.6117209 C90.4021395,39.6117209 91.3244651,39.4498605 92.3012093,38.960093 L92.3012093,35.5409302 C92.3012093,35.5409302 91.5951628,35.704186 91.108186,35.704186 L91.108186,35.704186 Z" id="Fill-99"></path>
                    <path d="M118.347628,36.7353488 C116.230884,38.9059535 112.704837,39.9371163 108.959721,39.9371163 C105.216,39.9371163 102.013674,39.1236279 99.571814,36.7353488 C97.8904186,35.1083721 96.8592558,32.7209302 96.8592558,30.3865116 L101.472279,30.3865116 C101.525302,32.2869767 102.55786,33.6432558 103.859721,34.6186047 C105.161581,35.5967442 107.006233,35.9762791 109.177395,35.9762791 C111.076465,35.9762791 113.138791,35.5967442 114.549488,34.4023256 C115.308558,33.8051163 115.905767,32.8283721 115.905767,31.5809302 C115.905767,29.7893023 114.767163,28.2167442 111.835535,27.7827907 L104.836465,26.7516279 C102.719721,26.4251163 100.983907,25.5027907 99.7894884,24.2023256 C98.703907,22.9534884 98.1625116,21.2706977 98.1625116,19.4804651 C98.1625116,17.2548837 99.1378605,15.4646512 100.386698,14.215814 C102.17693,12.3711628 105.324837,11.0693023 108.743442,11.0693023 C112.487163,11.0693023 115.905767,12.3181395 117.804837,14.76 C118.944837,16.2251163 119.596465,17.7990698 119.703907,19.9674419 L115.092279,19.9674419 C115.03786,18.5581395 114.277395,17.3093023 113.463907,16.6046512 C112.323907,15.5734884 110.588093,14.9762791 108.743442,14.9762791 C107.060651,14.9762791 105.324837,15.3572093 104.076,16.3339535 C103.099256,17.1474419 102.55786,18.124186 102.55786,19.2083721 C102.55786,21.2706977 103.91414,22.2474419 106.192744,22.6283721 L113.627163,23.7669767 C116.93693,24.2567442 120.518791,26.644186 120.518791,31.2544186 C120.518791,33.6432558 119.650884,35.3790698 118.347628,36.7353488" id="Fill-100"></path>
                    <path d="M145.913163,39.2310698 L145.913163,21.8148837 C145.913163,17.6902326 144.014093,15.2483721 139.673163,15.2483721 C137.015023,15.2483721 134.735023,17.0386047 133.540605,19.5348837 C132.618279,21.5413953 132.455023,24.4730233 132.455023,26.5883721 L132.455023,39.2310698 L127.788977,39.2310698 L127.788977,5.1159077e-13 L132.455023,5.1159077e-13 L132.455023,15.4102326 C134.083395,12.5888372 137.719674,11.0693023 140.813163,11.0693023 C147.053163,11.0693023 150.579209,14.8144186 150.579209,21.1632558 L150.579209,39.2310698 L145.913163,39.2310698 Z" id="Fill-101"></path>
                </g>
                <path d="M33.1719939,0 C57.5861809,0 66.3439878,8.7989676 66.3439878,33.1719939 C66.3439878,57.4547573 57.4435245,66.3439878 33.1719939,66.3439878 C8.97048593,66.3439878 0,57.3432396 0,33.1719939 C0,8.91004027 8.82738824,0 33.1719939,0 Z M33.1719939,4 C11.044915,4 4,11.1108775 4,33.1719939 C4,55.1371107 11.1826462,62.3439878 33.1719939,62.3439878 C55.2355155,62.3439878 62.3439878,55.2444867 62.3439878,33.1719939 C62.3439878,11.003919 55.3728324,4 33.1719939,4 Z M33.0243247,13.2024353 C35.6349354,13.2024353 37.8510796,14.8913466 38.6397356,17.2361475 L49.3942722,17.1006191 L49.4446066,21.1003024 L38.5600226,21.237171 C37.7094332,23.4657624 35.5517418,25.0487463 33.0243247,25.0487463 C30.4462108,25.0487463 28.2528037,23.40162 27.4390268,21.1022907 C27.3403559,21.1177546 27.2386192,21.1256279 27.1350438,21.1256279 C22.4544785,21.1256279 20.5601218,22.7222567 20.5601218,26.3528661 C20.5601218,29.9439233 22.3965672,31.4123232 27.0486322,31.2111391 C27.2108544,31.2041236 27.3693975,31.2166352 27.5219892,31.2465899 C28.3920013,29.0612628 30.5277903,27.5167277 33.0243247,27.5167277 C35.5075149,27.5167277 37.6338057,29.0447954 38.5141739,31.2119076 L38.5936158,31.2092423 C45.4943256,31.2012229 49.4195978,34.3243062 49.4195978,40.2296661 C49.4195978,46.1328974 45.4974102,49.2593273 38.5999653,49.2605418 C37.780507,51.5481034 35.593427,53.1837347 33.0243247,53.1837347 C30.4552225,53.1837347 28.2681425,51.5481034 27.447611,49.2613671 L16.5601218,49.2605421 L16.5601218,45.2605421 L27.4472513,45.2607942 C28.2675032,42.9735333 30.454847,41.3374238 33.0243247,41.3374238 C35.5938025,41.3374238 37.7811463,42.9735333 38.6013982,45.2607942 C43.4608741,45.2605421 45.4195978,43.6997891 45.4195978,40.2296661 C45.4195978,36.7798295 43.4838814,35.2207563 38.6781665,35.2093033 C37.9257696,37.6166398 35.6789939,39.3630386 33.0243247,39.3630386 C30.3644772,39.3630386 28.1141159,37.6098198 27.3658213,35.1959626 L27.2214554,35.2074039 C20.440291,35.5006634 16.5601218,32.3981263 16.5601218,26.3528661 C16.5601218,20.3471579 20.3823798,17.1256279 27.1350438,17.1256279 C27.2386192,17.1256279 27.3403559,17.1335013 27.4396881,17.1486821 C28.2528037,14.8495615 30.4462108,13.2024353 33.0243247,13.2024353 Z M33.0243247,45.3374238 C31.9621953,45.3374238 31.1011693,46.1984498 31.1011693,47.2605793 C31.1011693,48.3227087 31.9621953,49.1837347 33.0243247,49.1837347 C34.0864542,49.1837347 34.9474802,48.3227087 34.9474802,47.2605793 C34.9474802,46.1984498 34.0864542,45.3374238 33.0243247,45.3374238 Z M33.0243247,31.5167277 C31.9621953,31.5167277 31.1011693,32.3777537 31.1011693,33.4398832 C31.1011693,34.5020126 31.9621953,35.3630386 33.0243247,35.3630386 C34.0864542,35.3630386 34.9474802,34.5020126 34.9474802,33.4398832 C34.9474802,32.3777537 34.0864542,31.5167277 33.0243247,31.5167277 Z M33.0243247,17.2024353 C31.9621953,17.2024353 31.1011693,18.0634613 31.1011693,19.1255908 C31.1011693,20.1877202 31.9621953,21.0487463 33.0243247,21.0487463 C34.0864542,21.0487463 34.9474802,20.1877202 34.9474802,19.1255908 C34.9474802,18.0634613 34.0864542,17.2024353 33.0243247,17.2024353 Z" id="Combined-Shape" fill-rule="nonzero"></path>
            </g>
        </g>
    </g>
</svg>