<?xml version="1.0" encoding="UTF-8"?>
<svg width="244px" height="64px" viewBox="0 0 244 64" version="1.1" xmlns="http://www.w3.org/2000/svg" xmlns:xlink="http://www.w3.org/1999/xlink">
    <!-- Generator: sketchtool 58 (101010) - https://sketch.com -->
    <title>90F859B2-72BF-4CC1-977C-60AF0510AA60@1.00x</title>
    <desc>Created with sketchtool.</desc>
    <g id="Swash-Brand" stroke="none" stroke-width="1" fill="none" fill-rule="evenodd">
        <g id="Swash-Brand-Marks" transform="translate(-745.000000, -1042.000000)" fill="#404040">
            <g id="Horizontal-solid-green-lockup-Copy" transform="translate(745.000000, 1042.000000)">
                <path d="M32,1.0658141e-14 C55.6481186,1.0658141e-14 64,8.3911342 64,32 C64,55.5196517 55.5089356,64 32,64 C8.56027678,64 -4.26325641e-14,55.4108448 -4.26325641e-14,32 C-4.26325641e-14,8.49950829 8.42066446,1.0658141e-14 32,1.0658141e-14 Z M31.8551961,12.4179104 C29.1394725,12.4179104 26.8590666,14.2817272 26.2242731,16.8004944 C26.1768856,16.7957626 26.1288181,16.7933396 26.0801848,16.7933396 C19.7322451,16.7933396 16.238806,19.7377299 16.238806,25.3131836 C16.238806,30.9169732 19.7737338,33.7434593 26.1420916,33.4680521 L26.1420916,33.4680521 L26.1716917,33.4656279 C26.7256902,36.0961834 29.0598309,38.07092 31.8551961,38.07092 C34.648785,38.07092 36.9817355,36.0986921 37.5383058,33.4702221 C42.4220646,33.5143346 44.538322,35.2514412 44.538322,38.9207323 C44.538322,42.567474 42.4479474,44.3091031 37.6299519,44.3800881 L37.6299519,44.3800881 L37.484806,44.3809104 L37.4224931,44.1543686 C36.7080193,41.7558645 34.4858427,40.0069962 31.8551961,40.0069962 C29.141983,40.0069962 26.8632833,41.8673685 26.2251146,44.3820953 L26.2251146,44.3820953 L16.238806,44.3823525 L16.238806,47.2480241 L26.2251146,47.2483542 C26.8632833,49.763081 29.141983,51.6234533 31.8551961,51.6234533 C34.5687677,51.6234533 36.8477113,49.7625891 37.4860244,47.2473874 C43.8775385,47.1985574 47.4039936,44.3418875 47.4039936,38.9207323 C47.4039936,33.451786 43.8148507,30.5961389 37.3170414,30.6036897 L37.3170414,30.6036897 L37.4230864,30.6038285 C36.7092503,28.2043002 34.4865714,26.4544628 31.8551961,26.4544628 C29.2187261,26.4544628 26.9925367,28.2110825 26.2845004,30.6180998 C26.1978755,30.6057219 26.1088776,30.6011383 26.0182779,30.6050564 C21.1752451,30.8144992 19.1044776,29.1587382 19.1044776,25.3131836 C19.1044776,21.4392931 21.2167338,19.6590113 26.0801848,19.6590113 C26.1288181,19.6590113 26.1768856,19.6565883 26.2232451,19.6518812 C26.8588222,22.170351 29.1393269,24.0343676 31.8551961,24.0343676 C34.5487213,24.0343676 36.8140162,22.2008961 37.4711267,19.7139073 L37.4711267,19.7139073 L47.4039936,19.7129914 L47.4039936,16.8473198 L37.4986923,16.8469605 C36.8796181,14.3049367 34.5877764,12.4179104 31.8551961,12.4179104 Z M31.8551961,42.8726678 C33.4803254,42.8726678 34.797753,44.1900954 34.797753,45.8152248 C34.797753,47.4403541 33.4803254,48.7577817 31.8551961,48.7577817 C30.2300667,48.7577817 28.9126391,47.4403541 28.9126391,45.8152248 C28.9126391,44.1900954 30.2300667,42.8726678 31.8551961,42.8726678 Z M31.8551961,29.3201345 C33.4803254,29.3201345 34.797753,30.6375621 34.797753,32.2626914 C34.797753,33.8878207 33.4803254,35.2052483 31.8551961,35.2052483 C30.2300667,35.2052483 28.9126391,33.8878207 28.9126391,32.2626914 C28.9126391,30.6375621 30.2300667,29.3201345 31.8551961,29.3201345 Z M31.8551961,15.2835821 C33.4803254,15.2835821 34.797753,16.6010097 34.797753,18.226139 C34.797753,19.8512683 33.4803254,21.168696 31.8551961,21.168696 C30.2300667,21.168696 28.9126391,19.8512683 28.9126391,18.226139 C28.9126391,16.6010097 30.2300667,15.2835821 31.8551961,15.2835821 Z" id="Solid-Mark-Green" fill-rule="nonzero"></path>
                <g id="Group-14" transform="translate(93.000000, 12.000000)">
                    <path d="M14.9218605,39.9373953 C10.2544186,39.9373953 6.61953488,38.6885581 4.0144186,36.3013953 C1.57395349,34.0227907 2.62900812e-13,30.7116279 2.62900812e-13,27.0767442 L5.04697674,27.0767442 C5.04697674,29.3567442 6.13116279,31.6339535 7.70511628,33.1534884 C9.44093023,34.8362791 12.2093023,35.487907 14.9218605,35.487907 C17.852093,35.487907 20.2395349,34.8906977 21.9767442,33.2623256 C23.1697674,32.1767442 23.9302326,30.8204651 23.9302326,28.7595349 C23.9302326,25.7748837 22.14,23.2786047 17.5813953,22.5725581 C15.4646512,22.2474419 13.7288372,21.9767442 11.6665116,21.6502326 C5.91488372,20.7823256 1.51953488,17.58 1.51953488,11.4488372 C1.51953488,8.57302326 2.71255814,5.80604651 4.77488372,3.85116279 C7.43302326,1.35627907 10.6897674,0.0544186047 14.704186,0.0544186047 C18.4493023,0.0544186047 22.0297674,1.19302326 24.5804651,3.63488372 C26.9134884,5.86046512 28.107907,8.68186047 28.2167442,11.9372093 L23.1697674,11.9372093 C23.0609302,10.0381395 22.4106977,8.46418605 21.3251163,7.21534884 C19.86,5.53395349 17.635814,4.5027907 14.6497674,4.5027907 C11.8827907,4.5027907 9.65860465,5.31767442 7.97581395,7.21534884 C6.99906977,8.35674419 6.51069767,9.60418605 6.51069767,11.3413953 C6.51069767,14.8144186 9.27906977,16.3869767 12.1548837,16.7665116 C14.3246512,17.0386047 16.2781395,17.4181395 18.3948837,17.7432558 C24.7981395,18.6669767 28.975814,22.5725581 28.975814,28.6506977 C28.975814,31.8530233 27.6739535,34.2934884 25.7748837,36.1395349 C23.1153488,38.7429767 19.0465116,39.9373953 14.9218605,39.9373953 Z" id="Fill-97"></path>
                    <polygon id="Fill-98" points="58.6582326 39.2310698 53.1228837 39.2310698 47.9140465 23.7669767 42.6507907 39.2310698 37.1698605 39.2310698 33.4261395 11.8283721 37.8214884 11.8283721 40.6428837 33.6962791 45.7442791 18.9376744 50.083814 18.9376744 55.2396279 33.6432558 58.1154419 11.8283721 62.4563721 11.8283721"></polygon>
                    <path d="M84.9212093,27.6181395 C84.9212093,29.8981395 84.1077209,32.1237209 82.4793488,33.8051163 C81.0142326,35.3232558 78.8444651,36.0293023 76.7277209,36.0293023 C72.8207442,36.0293023 71.2467907,33.9139535 71.2467907,31.472093 C71.2467907,27.9976744 74.3946977,26.5883721 77.3249302,26.4251163 L84.9212093,25.9911628 L84.9212093,27.6181395 Z M91.108186,35.704186 C90.1844651,35.704186 89.479814,35.3232558 89.479814,33.8595349 L89.479814,20.5646512 C89.479814,18.9906977 89.2077209,17.7418605 88.6649302,16.4944186 C87.3630698,13.5097674 84.2165581,11.0693023 78.8988837,11.0693023 C75.5333023,11.0693023 72.3323721,12.207907 70.4333023,14.1069767 C68.968186,15.572093 67.9370233,17.4167442 67.8826047,19.7497674 L72.4412093,19.7497674 C72.5500465,18.3404651 73.0370233,17.4167442 73.9063256,16.5488372 C74.8286512,15.6265116 76.4026047,14.8660465 78.8988837,14.8660465 C81.1230698,14.8660465 82.588186,15.572093 83.5105116,16.44 C84.7593488,17.58 84.9212093,19.0451163 84.9212093,20.4013953 L84.9212093,22.4106977 L76.3467907,22.8976744 C69.3477209,23.2772093 66.5263256,27.7813953 66.5263256,31.8502326 C66.5263256,35.7586047 69.4565581,39.9368372 76.0230698,39.9368372 C79.8742326,39.9368372 83.456093,38.2004651 85.0844651,35.4334884 L85.191907,35.4334884 C85.191907,37.7651163 86.8202791,39.6117209 89.2621395,39.6117209 C90.4021395,39.6117209 91.3244651,39.4498605 92.3012093,38.960093 L92.3012093,35.5409302 C92.3012093,35.5409302 91.5951628,35.704186 91.108186,35.704186 L91.108186,35.704186 Z" id="Fill-99"></path>
                    <path d="M118.347628,36.7353488 C116.230884,38.9059535 112.704837,39.9371163 108.959721,39.9371163 C105.216,39.9371163 102.013674,39.1236279 99.571814,36.7353488 C97.8904186,35.1083721 96.8592558,32.7209302 96.8592558,30.3865116 L101.472279,30.3865116 C101.525302,32.2869767 102.55786,33.6432558 103.859721,34.6186047 C105.161581,35.5967442 107.006233,35.9762791 109.177395,35.9762791 C111.076465,35.9762791 113.138791,35.5967442 114.549488,34.4023256 C115.308558,33.8051163 115.905767,32.8283721 115.905767,31.5809302 C115.905767,29.7893023 114.767163,28.2167442 111.835535,27.7827907 L104.836465,26.7516279 C102.719721,26.4251163 100.983907,25.5027907 99.7894884,24.2023256 C98.703907,22.9534884 98.1625116,21.2706977 98.1625116,19.4804651 C98.1625116,17.2548837 99.1378605,15.4646512 100.386698,14.215814 C102.17693,12.3711628 105.324837,11.0693023 108.743442,11.0693023 C112.487163,11.0693023 115.905767,12.3181395 117.804837,14.76 C118.944837,16.2251163 119.596465,17.7990698 119.703907,19.9674419 L115.092279,19.9674419 C115.03786,18.5581395 114.277395,17.3093023 113.463907,16.6046512 C112.323907,15.5734884 110.588093,14.9762791 108.743442,14.9762791 C107.060651,14.9762791 105.324837,15.3572093 104.076,16.3339535 C103.099256,17.1474419 102.55786,18.124186 102.55786,19.2083721 C102.55786,21.2706977 103.91414,22.2474419 106.192744,22.6283721 L113.627163,23.7669767 C116.93693,24.2567442 120.518791,26.644186 120.518791,31.2544186 C120.518791,33.6432558 119.650884,35.3790698 118.347628,36.7353488" id="Fill-100"></path>
                    <path d="M145.913163,39.2310698 L145.913163,21.8148837 C145.913163,17.6902326 144.014093,15.2483721 139.673163,15.2483721 C137.015023,15.2483721 134.735023,17.0386047 133.540605,19.5348837 C132.618279,21.5413953 132.455023,24.4730233 132.455023,26.5883721 L132.455023,39.2310698 L127.788977,39.2310698 L127.788977,5.1159077e-13 L132.455023,5.1159077e-13 L132.455023,15.4102326 C134.083395,12.5888372 137.719674,11.0693023 140.813163,11.0693023 C147.053163,11.0693023 150.579209,14.8144186 150.579209,21.1632558 L150.579209,39.2310698 L145.913163,39.2310698 Z" id="Fill-101"></path>
                </g>
            </g>
        </g>
    </g>
</svg>