<?xml version="1.0" encoding="UTF-8"?>
<svg width="125px" height="125px" viewBox="0 0 125 125" version="1.1" xmlns="http://www.w3.org/2000/svg" xmlns:xlink="http://www.w3.org/1999/xlink">
    <!-- Generator: sketchtool 58 (101010) - https://sketch.com -->
    <title>DD98D5AF-51C9-4517-9377-AA4DE5210ACE@1.00x</title>
    <desc>Created with sketchtool.</desc>
    <g id="Swash-Brand" stroke="none" stroke-width="1" fill="none" fill-rule="evenodd">
        <g id="Swash-Brand-Marks" transform="translate(-73.000000, -85.000000)" fill="#404040" fill-rule="nonzero">
            <path d="M135.213302,85 C181.189163,85 197.426604,101.313755 197.426604,147.213302 C197.426604,192.939402 180.918568,209.426604 135.213302,209.426604 C89.6425964,209.426604 73,192.727863 73,147.213302 C73,101.524452 89.3711669,85 135.213302,85 Z M135.213302,90.5713405 C92.4598161,90.5713405 78.5713405,104.589856 78.5713405,147.213302 C78.5713405,189.655089 92.7237709,203.855264 135.213302,203.855264 C177.843175,203.855264 191.855264,189.860859 191.855264,147.213302 C191.855264,104.384889 178.106334,90.5713405 135.213302,90.5713405 Z M134.931779,109.142475 C140.244515,109.142475 144.700335,112.811371 145.903771,117.753694 L165.161218,117.753981 L165.161218,123.325322 L145.850623,123.325042 C144.573798,128.161208 140.169182,131.726793 134.931779,131.726793 C129.651114,131.726793 125.217051,128.102059 123.981936,123.20494 C123.891453,123.215702 123.798372,123.220375 123.7042,123.220375 C114.248846,123.220375 110.14227,126.681538 110.14227,134.213023 C110.14227,141.689418 114.168185,144.908492 123.583843,144.501301 C123.759194,144.493717 123.931459,144.502515 124.099159,144.526336 C125.477676,139.847246 129.805874,136.431859 134.931779,136.431859 C140.047465,136.431859 144.368622,139.833641 145.756564,144.49852 L145.550512,144.498643 C158.183329,144.483963 165.161218,150.035815 165.161218,160.668352 C165.161218,171.208245 158.304856,176.762099 145.878093,176.856757 C144.638168,181.746627 140.207479,185.364547 134.931779,185.364547 C129.656799,185.364547 125.226598,181.747613 123.985936,176.858504 L104.570929,176.857987 L104.570929,171.286647 L123.985717,171.287136 C125.226076,166.397589 129.656488,162.780229 134.931779,162.780229 C140.106834,162.780229 144.468811,166.261427 145.803697,171.009808 L145.877,171.284 L145.964422,171.284636 C155.469628,171.190738 159.589877,167.807089 159.589877,160.668352 C159.589877,153.534147 155.474951,150.15695 145.978708,150.07164 C144.898822,155.181669 140.363099,159.016176 134.931779,159.016176 C129.497258,159.016176 124.959391,155.177148 123.882184,150.063098 L123.824558,150.067439 C111.443415,150.602876 104.570929,145.107719 104.570929,134.213023 C104.570929,123.373417 111.362754,117.649035 123.7042,117.649035 C123.798372,117.649035 123.891453,117.653708 123.983223,117.662834 C125.217539,112.76681 129.651405,109.142475 134.931779,109.142475 Z M134.931779,168.35157 C131.772259,168.35157 129.210961,170.912867 129.210961,174.072388 C129.210961,177.231909 131.772259,179.793206 134.931779,179.793206 C138.0913,179.793206 140.652597,177.231909 140.652597,174.072388 C140.652597,170.912867 138.0913,168.35157 134.931779,168.35157 Z M145.877,171.284 L145.553755,171.286647 L145.877336,171.285144 L145.877336,171.285144 L145.877,171.284 Z M134.931779,142.003199 C131.772259,142.003199 129.210961,144.564497 129.210961,147.724018 C129.210961,150.883538 131.772259,153.444836 134.931779,153.444836 C138.0913,153.444836 140.652597,150.883538 140.652597,147.724018 C140.652597,144.564497 138.0913,142.003199 134.931779,142.003199 Z M134.931779,114.713816 C131.772259,114.713816 129.210961,117.275113 129.210961,120.434634 C129.210961,123.594155 131.772259,126.155452 134.931779,126.155452 C138.0913,126.155452 140.652597,123.594155 140.652597,120.434634 C140.652597,117.275113 138.0913,114.713816 134.931779,114.713816 Z" id="Outline-Mark"></path>
        </g>
    </g>
</svg>