<?xml version="1.0" encoding="UTF-8"?>
<svg width="125px" height="125px" viewBox="0 0 125 125" version="1.1" xmlns="http://www.w3.org/2000/svg" xmlns:xlink="http://www.w3.org/1999/xlink">
    <!-- Generator: sketchtool 58 (101010) - https://sketch.com -->
    <title>CC71A012-2041-4588-92CA-1ACCC3D92288@1.00x</title>
    <desc>Created with sketchtool.</desc>
    <g id="Swash-Brand" stroke="none" stroke-width="1" fill="none" fill-rule="evenodd">
        <g id="Swash-Brand-Marks" transform="translate(-743.000000, -85.000000)" fill="#404040" fill-rule="nonzero">
            <path d="M805.213302,85 C851.189163,85 867.426604,101.313755 867.426604,147.213302 C867.426604,192.939402 850.918568,209.426604 805.213302,209.426604 C759.642596,209.426604 743,192.727863 743,147.213302 C743,101.524452 759.371167,85 805.213302,85 Z M804.931779,109.142475 C799.651405,109.142475 795.217539,112.76681 793.983223,117.662834 C793.891453,117.653708 793.798372,117.649035 793.7042,117.649035 C781.362754,117.649035 774.570929,123.373417 774.570929,134.213023 C774.570929,145.107719 781.443415,150.602876 793.824558,150.067439 L793.824558,150.067439 L793.882184,150.063098 C794.959391,155.177148 799.497258,159.016176 804.931779,159.016176 C810.363099,159.016176 814.898822,155.181669 815.978708,150.07164 C825.474951,150.15695 829.589877,153.534147 829.589877,160.668352 C829.589877,167.909071 825.351066,171.286647 815.553755,171.286647 L815.877,171.284 L815.803697,171.009808 C814.494482,166.352742 810.273483,162.91459 805.229422,162.784076 L804.931779,162.780229 C799.656488,162.780229 795.226076,166.397589 793.985717,171.287136 L793.985717,171.287136 L774.570929,171.286647 L774.570929,176.857987 L793.985936,176.858504 C795.226598,181.747613 799.656799,185.364547 804.931779,185.364547 C810.207479,185.364547 814.638168,181.746627 815.878093,176.856757 C828.304856,176.762099 835.161218,171.208245 835.161218,160.668352 C835.161218,150.035815 828.183329,144.483963 815.550512,144.498643 L815.550512,144.498643 L815.756564,144.49852 C814.368622,139.833641 810.047465,136.431859 804.931779,136.431859 C799.805874,136.431859 795.477676,139.847246 794.099159,144.526336 C793.931459,144.502515 793.759194,144.493717 793.583843,144.501301 C784.168185,144.908492 780.14227,141.689418 780.14227,134.213023 C780.14227,126.681538 784.248846,123.220375 793.7042,123.220375 C793.798372,123.220375 793.891453,123.215702 793.981936,123.20494 C795.217051,128.102059 799.651114,131.726793 804.931779,131.726793 C810.169182,131.726793 814.573798,128.161208 815.850623,123.325042 L815.850623,123.325042 L835.161218,123.325322 L835.161218,117.753981 L815.903771,117.753694 C814.700335,112.811371 810.244515,109.142475 804.931779,109.142475 Z M804.931779,168.35157 C808.0913,168.35157 810.652597,170.912867 810.652597,174.072388 C810.652597,177.231909 808.0913,179.793206 804.931779,179.793206 C801.772259,179.793206 799.210961,177.231909 799.210961,174.072388 C799.210961,170.912867 801.772259,168.35157 804.931779,168.35157 Z M815.877,171.284 L815.877336,171.285144 L815.553755,171.286647 L815.877,171.284 Z M804.931779,142.003199 C808.0913,142.003199 810.652597,144.564497 810.652597,147.724018 C810.652597,150.883538 808.0913,153.444836 804.931779,153.444836 C801.772259,153.444836 799.210961,150.883538 799.210961,147.724018 C799.210961,144.564497 801.772259,142.003199 804.931779,142.003199 Z M804.931779,114.713816 C808.0913,114.713816 810.652597,117.275113 810.652597,120.434634 C810.652597,123.594155 808.0913,126.155452 804.931779,126.155452 C801.772259,126.155452 799.210961,123.594155 799.210961,120.434634 C799.210961,117.275113 801.772259,114.713816 804.931779,114.713816 Z" id="Solid-mono-mark"></path>
        </g>
    </g>
</svg>