<?xml version="1.0" encoding="UTF-8"?>
<svg width="130px" height="170px" viewBox="0 0 130 170" version="1.1" xmlns="http://www.w3.org/2000/svg" xmlns:xlink="http://www.w3.org/1999/xlink">
    <!-- Generator: sketchtool 58 (101010) - https://sketch.com -->
    <title>47F27374-34B5-4FB8-BABD-90747FAF7F07@1.00x</title>
    <desc>Created with sketchtool.</desc>
    <g id="Swash-Brand" stroke="none" stroke-width="1" fill="none" fill-rule="evenodd">
        <g id="Swash-Brand-Marks" transform="translate(-411.000000, -627.000000)">
            <g id="Solid-Green-Vertical-Lockup" transform="translate(411.000000, 627.000000)">
                <path d="M65.2133021,-3.55271368e-14 C111.189163,-3.55271368e-14 127.426604,16.3137552 127.426604,62.2133021 C127.426604,107.939402 110.918568,124.426604 65.2133021,124.426604 C19.6425964,124.426604 3,107.727863 3,62.2133021 C3,16.5244524 19.3711669,-3.55271368e-14 65.2133021,-3.55271368e-14 Z M64.9317792,24.1424754 C59.6514049,24.1424754 55.2175392,27.7668096 53.9832233,32.6628343 C53.8914531,32.6537077 53.7983724,32.6490347 53.7042004,32.6490347 C41.362754,32.6490347 34.5709294,38.3734172 34.5709294,49.213023 C34.5709294,60.1077185 41.4434148,65.6028758 53.8245575,65.0674386 L53.8245575,65.0674386 L53.8821836,65.0630985 C54.9593906,70.1771479 59.4972583,74.0161764 64.9317792,74.0161764 C70.3630994,74.0161764 74.8988222,70.1816687 75.9787076,65.0716396 C85.474951,65.1569504 89.5898775,68.5341469 89.5898775,75.6683523 C89.5898775,82.9090707 85.3510656,86.2866469 75.5537551,86.2866469 L75.877,86.284 L75.8036973,86.0098084 C74.4944819,81.3527419 70.2734826,77.9145902 65.2294222,77.7840758 L64.9317792,77.7802293 C59.6564879,77.7802293 55.2260762,81.3975891 53.9857171,86.2871359 L53.9857171,86.2871359 L34.5709294,86.2866469 L34.5709294,91.8579874 L53.9859362,91.858504 C55.226598,96.7476129 59.6567985,100.364547 64.9317792,100.364547 C70.207479,100.364547 74.6381684,96.7466267 75.8780932,91.8567568 C88.3048557,91.7620987 95.161218,86.2082447 95.161218,75.6683523 C95.161218,65.0358147 88.1833294,59.4839634 75.5505116,59.4986434 L75.5505116,59.4986434 L75.7565636,59.4985199 C74.3686219,54.8336414 70.047465,51.431859 64.9317792,51.431859 C59.8058744,51.431859 55.477676,54.8472456 54.0991586,59.5263365 C53.9314593,59.5025149 53.7591945,59.4937174 53.5838433,59.5013006 C44.168185,59.908492 40.1422699,56.6894183 40.1422699,49.213023 C40.1422699,41.6815381 44.2488458,38.2203752 53.7042004,38.2203752 C53.7983724,38.2203752 53.8914531,38.2157023 53.9819364,38.2049397 C55.2170507,43.1020594 59.651114,46.7267928 64.9317792,46.7267928 C70.1691822,46.7267928 74.5737982,43.1612078 75.8506229,38.3250421 L75.8506229,38.3250421 L95.161218,38.3253216 L95.161218,32.7539811 L75.9037711,32.7536937 C74.7003352,27.8113707 70.2445154,24.1424754 64.9317792,24.1424754 Z M64.9317792,83.3515698 C68.0912999,83.3515698 70.6525974,85.9128674 70.6525974,89.072388 C70.6525974,92.2319087 68.0912999,94.7932062 64.9317792,94.7932062 C61.7722585,94.7932062 59.210961,92.2319087 59.210961,89.072388 C59.210961,85.9128674 61.7722585,83.3515698 64.9317792,83.3515698 Z M75.877,86.284 L75.8773357,86.2851436 L75.5537551,86.2866469 L75.877,86.284 Z M64.9317792,57.0031995 C68.0912999,57.0031995 70.6525974,59.564497 70.6525974,62.7240177 C70.6525974,65.8835384 68.0912999,68.4448359 64.9317792,68.4448359 C61.7722585,68.4448359 59.210961,65.8835384 59.210961,62.7240177 C59.210961,59.564497 61.7722585,57.0031995 64.9317792,57.0031995 Z M64.9317792,29.7138159 C68.0912999,29.7138159 70.6525974,32.2751135 70.6525974,35.4346341 C70.6525974,38.5941548 68.0912999,41.1554524 64.9317792,41.1554524 C61.7722585,41.1554524 59.210961,38.5941548 59.210961,35.4346341 C59.210961,32.2751135 61.7722585,29.7138159 64.9317792,29.7138159 Z" id="Combined-Shape-Copy-4" fill="#2AC437" fill-rule="nonzero"></path>
                <g id="Swash-Wordmark-Copy-2" transform="translate(0.000000, 134.000000)" fill="#404040">
                    <path d="M13.2143223,35.3672797 C9.08098507,35.3672797 5.86204833,34.2613494 3.55504069,32.1473544 C1.39384286,30.129495 2.62900812e-13,27.1972352 2.62900812e-13,23.9782984 L4.46944115,23.9782984 C4.46944115,25.9973935 5.42956162,28.0140172 6.82340448,29.3596687 C8.36058579,30.8498943 10.8121675,31.4269551 13.2143223,31.4269551 C15.8092425,31.4269551 17.9234846,30.8980857 19.4619016,29.4560514 C20.5184048,28.4946953 21.1918484,27.2936179 21.1918484,25.468524 C21.1918484,22.8254125 19.6064757,20.6147876 15.5695213,19.9895354 C13.6950003,19.7016228 12.157819,19.4619016 10.3314895,19.1727533 C5.2380318,18.4041627 1.34565148,15.5682856 1.34565148,10.138724 C1.34565148,7.59199513 2.40215471,5.14164905 4.22848427,3.41046656 C6.5824476,1.20107736 9.46651607,0.0481913754 13.0215568,0.0481913754 C16.3381119,0.0481913754 19.5088573,1.05650323 21.7676735,3.21893674 C23.8337243,5.18984042 24.8914632,7.68837789 24.987846,10.5712107 L20.5184048,10.5712107 C20.4220221,8.88945524 19.8461969,7.49561238 18.8848408,6.3896821 C17.5873807,4.90069217 15.6177126,3.98752739 12.9733654,3.98752739 C10.5230193,3.98752739 8.55335129,4.70916235 7.06312568,6.3896821 C6.19815228,7.40046531 5.76566558,8.50515991 5.76566558,10.0435769 C5.76566558,13.1191752 8.21724734,14.5117824 10.7639762,14.8478863 C12.6854528,15.0888432 14.4153996,15.4249471 16.2899205,15.7128597 C21.9604391,16.5308774 25.6600539,19.9895354 25.6600539,25.3721413 C25.6600539,28.2080184 24.5071679,30.3692162 22.8254125,32.0040159 C20.4702134,34.3095408 16.8669814,35.3672797 13.2143223,35.3672797 Z" id="Fill-97"></path>
                    <polygon id="Fill-98" points="51.9458542 34.7417803 47.0439264 34.7417803 42.4311468 21.0472743 37.7701758 34.7417803 32.9164393 34.7417803 29.6011198 10.4748279 33.4935001 10.4748279 35.9920376 29.8403468 40.5096701 16.7705986 44.3526234 16.7705986 48.9184473 29.7933911 51.4651761 10.4748279 55.3093651 10.4748279"></polygon>
                    <path d="M75.2035062,24.4577408 C75.2035062,26.4768359 74.483107,28.4477396 73.0410727,29.9367295 C71.7436126,31.2811453 69.822136,31.9063975 67.947615,31.9063975 C64.4877214,31.9063975 63.0938786,30.0331123 63.0938786,27.8706788 C63.0938786,24.7938448 65.8815643,23.5458117 68.4764845,23.4012376 L75.2035062,23.0169423 L75.2035062,24.4577408 Z M80.6824949,31.6184849 C79.8644772,31.6184849 79.2404607,31.2811453 79.2404607,29.9849209 L79.2404607,18.2113972 C79.2404607,16.8175543 78.9995038,15.711624 78.5188257,14.6069294 C77.3659397,11.9638179 74.5794897,9.80262002 69.8703274,9.80262002 C66.8898761,9.80262002 64.0552347,10.8109319 62.3734793,12.4926873 C61.0760192,13.7901474 60.1628544,15.4237115 60.114663,17.4897622 L64.1516175,17.4897622 C64.2480002,16.2417292 64.6792513,15.4237115 65.4490776,14.6551208 C66.2658596,13.8383388 67.6597025,13.1648952 69.8703274,13.1648952 C71.8399954,13.1648952 73.1374555,13.7901474 73.9542375,14.5587381 C75.0601678,15.5682856 75.2035062,16.8657457 75.2035062,18.0668231 L75.2035062,19.8461969 L67.6102754,20.2774479 C61.4121231,20.6135519 58.9135857,24.602315 58.9135857,28.205547 C58.9135857,31.6666763 61.5085059,35.3667854 67.3235985,35.3667854 C70.7340651,35.3667854 73.9060461,33.8291098 75.3480804,31.3787637 L75.4432274,31.3787637 C75.4432274,33.4435788 76.8852617,35.0788728 79.0476952,35.0788728 C80.0572427,35.0788728 80.8740247,34.9355344 81.7389981,34.501812 L81.7389981,31.4739108 C81.7389981,31.4739108 81.1137459,31.6184849 80.6824949,31.6184849 L80.6824949,31.6184849 Z" id="Fill-99"></path>
                    <path d="M103.158376,32.5316497 C101.283855,34.4538678 98.1613008,35.3670325 94.8447456,35.3670325 C91.5294262,35.3670325 88.6935491,34.6466333 86.5311156,32.5316497 C85.0421256,31.0908512 84.1289608,28.976609 84.1289608,26.9093226 L88.2141067,26.9093226 C88.2610624,28.5923137 89.1754628,29.7933911 90.3283488,30.6571288 C91.4812348,31.5233379 93.1147988,31.8594418 95.0375111,31.8594418 C96.7192666,31.8594418 98.5455961,31.5233379 99.7948649,30.465599 C100.467073,29.9367295 100.995942,29.0717561 100.995942,27.9670615 C100.995942,26.3804531 99.9876304,24.987846 97.3914745,24.6035506 L91.1933222,23.6903859 C89.3188013,23.4012376 87.78162,22.5844556 86.7238811,21.4328053 C85.7625249,20.326875 85.2830825,18.8366494 85.2830825,17.2512767 C85.2830825,15.280373 86.1468202,13.6950003 87.2527505,12.5890701 C88.8381232,10.955506 91.6258089,9.80262002 94.6532158,9.80262002 C97.9685353,9.80262002 100.995942,10.9085503 102.677698,13.0709838 C103.687245,14.3684439 104.264306,15.7622868 104.359453,17.6825277 L100.275543,17.6825277 C100.227352,16.4344947 99.553908,15.3285644 98.8335087,14.7045479 C97.8239612,13.7913831 96.2867799,13.2625136 94.6532158,13.2625136 C93.1629902,13.2625136 91.6258089,13.5998533 90.5198786,14.4648267 C89.6549052,15.1852259 89.1754628,16.0501993 89.1754628,17.0103198 C89.1754628,18.8366494 90.3765402,19.7016228 92.3943996,20.0389624 L98.9780828,21.0472743 C101.909107,21.4809967 105.081088,23.5952388 105.081088,27.6779133 C105.081088,29.7933911 104.312497,31.3305724 103.158376,32.5316497" id="Fill-100"></path>
                    <path d="M125.099703,34.7417803 L125.099703,19.3185631 C125.099703,15.665904 123.417948,13.5034705 119.573759,13.5034705 C117.219795,13.5034705 115.2007,15.0888432 114.142961,17.2994681 C113.326179,19.0763706 113.181605,21.6725265 113.181605,23.5458117 L113.181605,34.7417803 L109.049504,34.7417803 L109.049504,6.64357458e-13 L113.181605,6.64357458e-13 L113.181605,13.646809 C114.623639,11.1482715 117.843812,9.80262002 120.583306,9.80262002 C126.109251,9.80262002 129.231805,13.1191752 129.231805,18.7415023 L129.231805,34.7417803 L125.099703,34.7417803 Z" id="Fill-101"></path>
                </g>
            </g>
        </g>
    </g>
</svg>