<?xml version="1.0" encoding="UTF-8"?>
<svg width="125px" height="125px" viewBox="0 0 125 125" version="1.1" xmlns="http://www.w3.org/2000/svg" xmlns:xlink="http://www.w3.org/1999/xlink">
    <!-- Generator: sketchtool 58 (101010) - https://sketch.com -->
    <title>B773DD30-5DAF-4BA9-A940-99A9D5163DD6@1.00x</title>
    <desc>Created with sketchtool.</desc>
    <g id="Swash-Brand" stroke="none" stroke-width="1" fill="none" fill-rule="evenodd">
        <g id="Swash-Brand-Marks" transform="translate(-410.000000, -85.000000)" fill="#2AC437" fill-rule="nonzero">
            <path d="M472.213302,85 C518.189163,85 534.426604,101.313755 534.426604,147.213302 C534.426604,192.939402 517.918568,209.426604 472.213302,209.426604 C426.642596,209.426604 410,192.727863 410,147.213302 C410,101.524452 426.371167,85 472.213302,85 Z M471.931779,109.142475 C466.651405,109.142475 462.217539,112.76681 460.983223,117.662834 C460.891453,117.653708 460.798372,117.649035 460.7042,117.649035 C448.362754,117.649035 441.570929,123.373417 441.570929,134.213023 C441.570929,145.107719 448.443415,150.602876 460.824558,150.067439 L460.824558,150.067439 L460.882184,150.063098 C461.959391,155.177148 466.497258,159.016176 471.931779,159.016176 C477.363099,159.016176 481.898822,155.181669 482.978708,150.07164 C492.474951,150.15695 496.589877,153.534147 496.589877,160.668352 C496.589877,167.909071 492.351066,171.286647 482.553755,171.286647 L482.877,171.284 L482.803697,171.009808 C481.494482,166.352742 477.273483,162.91459 472.229422,162.784076 L471.931779,162.780229 C466.656488,162.780229 462.226076,166.397589 460.985717,171.287136 L460.985717,171.287136 L441.570929,171.286647 L441.570929,176.857987 L460.985936,176.858504 C462.226598,181.747613 466.656799,185.364547 471.931779,185.364547 C477.207479,185.364547 481.638168,181.746627 482.878093,176.856757 C495.304856,176.762099 502.161218,171.208245 502.161218,160.668352 C502.161218,150.035815 495.183329,144.483963 482.550512,144.498643 L482.550512,144.498643 L482.756564,144.49852 C481.368622,139.833641 477.047465,136.431859 471.931779,136.431859 C466.805874,136.431859 462.477676,139.847246 461.099159,144.526336 C460.931459,144.502515 460.759194,144.493717 460.583843,144.501301 C451.168185,144.908492 447.14227,141.689418 447.14227,134.213023 C447.14227,126.681538 451.248846,123.220375 460.7042,123.220375 C460.798372,123.220375 460.891453,123.215702 460.981936,123.20494 C462.217051,128.102059 466.651114,131.726793 471.931779,131.726793 C477.169182,131.726793 481.573798,128.161208 482.850623,123.325042 L482.850623,123.325042 L502.161218,123.325322 L502.161218,117.753981 L482.903771,117.753694 C481.700335,112.811371 477.244515,109.142475 471.931779,109.142475 Z M471.931779,168.35157 C475.0913,168.35157 477.652597,170.912867 477.652597,174.072388 C477.652597,177.231909 475.0913,179.793206 471.931779,179.793206 C468.772259,179.793206 466.210961,177.231909 466.210961,174.072388 C466.210961,170.912867 468.772259,168.35157 471.931779,168.35157 Z M482.877,171.284 L482.877336,171.285144 L482.553755,171.286647 L482.877,171.284 Z M471.931779,142.003199 C475.0913,142.003199 477.652597,144.564497 477.652597,147.724018 C477.652597,150.883538 475.0913,153.444836 471.931779,153.444836 C468.772259,153.444836 466.210961,150.883538 466.210961,147.724018 C466.210961,144.564497 468.772259,142.003199 471.931779,142.003199 Z M471.931779,114.713816 C475.0913,114.713816 477.652597,117.275113 477.652597,120.434634 C477.652597,123.594155 475.0913,126.155452 471.931779,126.155452 C468.772259,126.155452 466.210961,123.594155 466.210961,120.434634 C466.210961,117.275113 468.772259,114.713816 471.931779,114.713816 Z" id="Solid-green-mark"></path>
        </g>
    </g>
</svg>