<?xml version="1.0" encoding="UTF-8"?>
<svg width="173px" height="48px" viewBox="0 0 173 48" version="1.1" xmlns="http://www.w3.org/2000/svg" xmlns:xlink="http://www.w3.org/1999/xlink">
    <!-- Generator: sketchtool 58 (101010) - https://sketch.com -->
    <title>A0CC2006-6FE0-42E3-A092-B622B7652035@1.00x</title>
    <desc>Created with sketchtool.</desc>
    <g id="Swash-Brand" stroke="none" stroke-width="1" fill="none" fill-rule="evenodd">
        <g id="Swash-Brand-Marks" transform="translate(-73.000000, -402.000000)" fill="#404040">
            <g id="Wordmark-only" transform="translate(73.000000, 402.000000)">
                <path d="M17.6190963,47.1563729 C12.1079801,47.1563729 7.81606444,45.6817992 4.74005425,42.8631392 C1.85845714,40.17266 2.62900812e-13,36.2629802 2.62900812e-13,31.9710646 L5.95925486,31.9710646 C5.95925486,34.6631913 7.2394155,37.3520229 9.09787264,39.1462249 C11.1474477,41.1331924 14.4162234,41.9026068 17.6190963,41.9026068 C21.07899,41.9026068 23.8979795,41.1974476 25.9492021,39.2747352 C27.3578731,37.992927 28.2557979,36.3914906 28.2557979,33.9580321 C28.2557979,30.4338833 26.1419676,27.4863834 20.7593617,26.6527138 C18.2600005,26.2688304 16.2104254,25.9492021 13.7753193,25.5636711 C6.9840424,24.5388836 1.79420198,20.7577141 1.79420198,13.5182986 C1.79420198,10.1226602 3.20287295,6.85553206 5.63797903,4.54728875 C8.77659681,1.60143647 12.6220214,0.0642551672 17.3620757,0.0642551672 C21.7841492,0.0642551672 26.0118097,1.40867097 29.0235647,4.29191565 C31.7782991,6.91978723 33.1886176,10.2511705 33.317128,14.0949476 L27.3578731,14.0949476 C27.2293628,11.852607 26.4615959,9.99414985 25.1797877,8.51957614 C23.4498409,6.53425623 20.8236169,5.31670319 17.2978205,5.31670319 C14.0306924,5.31670319 11.4044684,6.27888313 9.41750091,8.51957614 C8.26420304,9.86728708 7.6875541,11.3402132 7.6875541,13.3914359 C7.6875541,17.4922336 10.9563298,19.3490432 14.3519682,19.7971818 C16.9139371,20.1184576 19.2205328,20.5665962 21.7198941,20.9504796 C29.2805854,22.0411699 34.2134052,26.6527138 34.2134052,33.8295217 C34.2134052,37.6106912 32.6762239,40.4922883 30.4338833,42.6720213 C27.2936179,45.7460544 22.4893085,47.1563729 17.6190963,47.1563729 Z" id="Fill-97"></path>
                <polygon id="Fill-98" points="69.2611389 46.3223738 62.7252351 46.3223738 56.5748624 28.0630324 50.3602344 46.3223738 43.8885858 46.3223738 39.4681598 13.9664372 44.6580002 13.9664372 47.9893835 39.787129 54.0128935 22.3607982 59.1368312 22.3607982 65.2245964 39.7245214 68.6202348 13.9664372 73.7458201 13.9664372"></polygon>
                <path d="M100.271342,32.6103211 C100.271342,35.3024479 99.3108093,37.9303194 97.388097,39.9156393 C95.6581502,41.7081938 93.0961813,42.5418634 90.5968201,42.5418634 C85.9836286,42.5418634 84.1251714,40.0441497 84.1251714,37.160905 C84.1251714,33.0584597 87.8420857,31.3944156 91.3019793,31.2016501 L100.271342,30.6892564 L100.271342,32.6103211 Z M107.57666,42.1579799 C106.48597,42.1579799 105.653948,41.7081938 105.653948,39.9798945 L105.653948,24.2818629 C105.653948,22.4234058 105.332672,20.9488321 104.691768,19.4759059 C103.154586,15.9517571 99.4393196,13.07016 93.1604365,13.07016 C89.1865015,13.07016 85.4069796,14.4145758 83.1646391,16.6569164 C81.4346923,18.3868632 80.2171392,20.5649486 80.152884,23.319683 L85.53549,23.319683 C85.6640003,21.6556389 86.2390017,20.5649486 87.2654368,19.5401611 C88.3544795,18.4511184 90.2129366,17.5531936 93.1604365,17.5531936 C95.7866605,17.5531936 97.5166073,18.3868632 98.60565,19.4116508 C100.080224,20.7577141 100.271342,22.4876609 100.271342,24.0890974 L100.271342,26.4615959 L90.1470339,27.0365973 C81.8828309,27.4847359 78.5514476,32.8030866 78.5514476,37.607396 C78.5514476,42.2222351 82.0113412,47.1557139 89.764798,47.1557139 C94.3120868,47.1557139 98.5413948,45.1054798 100.464107,41.8383517 L100.59097,41.8383517 C100.59097,44.5914384 102.513682,46.7718304 105.396927,46.7718304 C106.74299,46.7718304 107.832033,46.5807125 108.985331,46.002416 L108.985331,41.9652144 C108.985331,41.9652144 108.151661,42.1579799 107.57666,42.1579799 L107.57666,42.1579799 Z" id="Fill-99"></path>
                <path d="M137.544501,43.375533 C135.04514,45.9384904 130.881734,47.1560434 126.459661,47.1560434 C122.039235,47.1560434 118.258065,46.195511 115.374821,43.375533 C113.389501,41.4544682 112.171948,38.6354787 112.171948,35.8790968 L117.618809,35.8790968 C117.681416,38.1230849 118.900617,39.7245214 120.437798,40.8761717 C121.97498,42.0311172 124.153065,42.4792558 126.716682,42.4792558 C128.959022,42.4792558 131.394128,42.0311172 133.05982,40.6207986 C133.956097,39.9156393 134.661256,38.7623415 134.661256,37.2894153 C134.661256,35.1739375 133.31684,33.317128 129.855299,32.8047342 L121.591096,31.5871811 C119.091735,31.2016501 117.04216,30.1126074 115.631841,28.5770737 C114.350033,27.1025 113.710777,25.1155325 113.710777,23.0017023 C113.710777,20.3738307 114.862427,18.2600005 116.337001,16.7854267 C118.450831,14.6073413 122.167745,13.07016 126.204288,13.07016 C130.624714,13.07016 134.661256,14.5447337 136.903597,17.4279784 C138.24966,19.1579252 139.019075,21.0163824 139.145937,23.5767036 L133.700724,23.5767036 C133.636469,21.9126596 132.738544,20.4380859 131.778012,19.6060638 C130.431948,18.3885108 128.382373,17.6833515 126.204288,17.6833515 C124.21732,17.6833515 122.167745,18.1331377 120.693171,19.2864356 C119.539874,20.2469679 118.900617,21.4002658 118.900617,22.6804264 C118.900617,25.1155325 120.502054,26.2688304 123.192533,26.7186166 L131.970777,28.0630324 C135.878809,28.6413289 140.108117,31.4603184 140.108117,36.9038843 C140.108117,39.7245214 139.08333,41.7740965 137.544501,43.375533" id="Fill-100"></path>
                <path d="M166.799604,46.3223738 L166.799604,25.7580842 C166.799604,20.887872 164.557263,18.0046274 159.431678,18.0046274 C156.29306,18.0046274 153.600934,20.1184576 152.190615,23.0659574 C151.101572,25.4351608 150.908807,28.896702 150.908807,31.3944156 L150.908807,46.3223738 L145.399338,46.3223738 L145.399338,6.64357458e-13 L150.908807,6.64357458e-13 L150.908807,18.1957453 C152.831519,14.864362 157.125082,13.07016 160.777742,13.07016 C168.145667,13.07016 172.309073,17.4922336 172.309073,24.9886697 L172.309073,46.3223738 L166.799604,46.3223738 Z" id="Fill-101"></path>
            </g>
        </g>
    </g>
</svg>