<?xml version="1.0" encoding="UTF-8"?>
<svg width="22px" height="22px" viewBox="0 0 22 22" version="1.1" xmlns="http://www.w3.org/2000/svg" xmlns:xlink="http://www.w3.org/1999/xlink">
    <!-- Generator: sketchtool 57.1 (101010) - https://sketch.com -->
    <title>C8271589-10BF-4596-9760-4E7A3B8BF143@1.00x</title>
    <desc>Created with sketchtool.</desc>
    <g id="Swash-Views" stroke="none" stroke-width="1" fill="none" fill-rule="evenodd" stroke-linecap="round" stroke-linejoin="round">
        <g id="Popover-&amp;-notifications" transform="translate(-365.000000, -745.000000)" stroke="#A3A3A3" stroke-width="1.5">
            <g id="cog" transform="translate(366.000000, 746.000000)">
                <path d="M8.78833333,2.03166667 C9.09759103,2.37495581 9.53795265,2.57095007 10,2.57095007 C10.4620474,2.57095007 10.902409,2.37495581 11.2116667,2.03166667 L12,1.16666667 C12.4629688,0.654285124 13.1982508,0.488632116 13.8362111,0.752983398 C14.4741714,1.01733468 14.8767904,1.65449918 14.8416667,2.34416667 L14.7825,3.51083333 C14.7593586,3.97106035 14.9318999,4.41961434 15.2575024,4.74569317 C15.583105,5.07177199 16.0314063,5.24496866 16.4916667,5.2225 L17.6583333,5.16333333 C18.3475352,5.12935497 18.9836663,5.53237856 19.2473388,6.17005445 C19.5110112,6.80773034 19.3452712,7.54231943 18.8333333,8.005 L17.965,8.78833333 C17.6221489,9.09801535 17.4264871,9.53841034 17.4264871,10.0004167 C17.4264871,10.462423 17.6221489,10.902818 17.965,11.2125 L18.8333333,11.9958333 C19.3457149,12.4588021 19.5113679,13.1940842 19.2470166,13.8320444 C18.9826653,14.4700047 18.3455008,14.8726237 17.6558333,14.8375 L16.4891667,14.7783333 C16.0278969,14.7546059 15.5781812,14.9274848 15.251583,15.254083 C14.9249848,15.5806812 14.7521059,16.0303969 14.7758333,16.4916667 L14.835,17.6583333 C14.8655635,18.3443582 14.4635456,18.9761673 13.8291683,19.2390926 C13.1947911,19.502018 12.463696,19.3398412 12,18.8333333 L11.2158333,17.9658333 C10.9063022,17.6230222 10.4660421,17.4273718 10.0041667,17.4273718 C9.5422912,17.4273718 9.1020311,17.6230222 8.7925,17.9658333 L8.005,18.8333333 C7.54199874,19.342256 6.80962051,19.5062671 6.1737869,19.243421 C5.53795328,18.980575 5.13516404,18.3472991 5.16666667,17.66 L5.22666667,16.4933333 C5.2503941,16.0320636 5.0775152,15.5823479 4.75091699,15.2557497 C4.42431878,14.9291515 3.97460309,14.7562726 3.51333333,14.78 L2.34666667,14.8391667 C1.65727625,14.8751492 1.01984183,14.473396 0.754902125,13.8359316 C0.48996242,13.1984672 0.654856714,12.4632542 1.16666667,12 L2.03416667,11.2166667 C2.37701779,10.9069846 2.57267957,10.4665897 2.57267957,10.0045833 C2.57267957,9.542577 2.37701779,9.10218202 2.03416667,8.7925 L1.16666667,8.005 C0.656573501,7.54229019 0.49192348,6.80913251 0.755185237,6.17274533 C1.01844699,5.53635814 1.65292761,5.13378621 2.34083333,5.16666667 L3.5075,5.22583333 C3.96966162,5.25013183 4.42040057,5.07702708 4.74749056,4.74961921 C5.07458056,4.42221135 5.2472474,3.97130446 5.2225,3.50916667 L5.16666667,2.34166667 C5.13440774,1.65405779 5.53692904,1.02009893 6.17294909,0.756802317 C6.80896914,0.493505704 7.54180467,0.657454836 8.005,1.16666667 L8.78833333,2.03166667 Z" id="Path"></path>
                <circle id="Oval" cx="10" cy="10.0008333" r="3.75"></circle>
            </g>
        </g>
    </g>
</svg>