<?xml version="1.0" encoding="UTF-8"?>
<svg width="22px" height="22px" viewBox="0 0 22 22" version="1.1" xmlns="http://www.w3.org/2000/svg" xmlns:xlink="http://www.w3.org/1999/xlink">
    <!-- Generator: sketchtool 57.1 (101010) - https://sketch.com -->
    <title>D4783393-6FD6-468F-ACB2-8CA7437D662B@1.00x</title>
    <desc>Created with sketchtool.</desc>
    <g id="Swash-Views" stroke="none" stroke-width="1" fill="none" fill-rule="evenodd">
        <g id="Popover-&amp;-notifications" transform="translate(-637.000000, -849.000000)" stroke="#323232" stroke-width="1.5">
            <g id="Help_hover" transform="translate(638.000000, 850.000000)">
                <path d="M7.5,7.5 C7.50024278,6.22869099 8.4545448,5.16000844 9.71772403,5.01646447 C10.9809033,4.8729205 12.1506604,5.70023122 12.436149,6.93907055 C12.7216377,8.17790988 12.031935,9.4337303 10.8333333,9.8575 C10.3336734,10.0341564 9.99972217,10.5066974 10,11.0366667 L10,11.875" id="Path" stroke-linecap="round" stroke-linejoin="round"></path>
                <path d="M10,14.375 C9.82741102,14.375 9.6875,14.514911 9.6875,14.6875 C9.6875,14.860089 9.82741102,15 10,15 C10.172589,15 10.3125,14.860089 10.3125,14.6875 C10.3125,14.514911 10.172589,14.375 10,14.375 L10,14.375" id="Path" stroke-linecap="round" stroke-linejoin="round"></path>
                <circle id="Oval" cx="10" cy="10" r="9.375"></circle>
            </g>
        </g>
    </g>
</svg>